<svg xmlns="http://www.w3.org/2000/svg" fill="none" width="343" height="405"><path d="M251.869 10 243.734.685a2 2 0 0 0-3.013 0L232.586 10H6q-.147 0-.294.007-.148.008-.294.022-.147.014-.292.036-.146.022-.29.05-.145.029-.288.065-.143.036-.284.078-.14.043-.28.093-.138.05-.274.106-.136.056-.27.12-.132.062-.262.132-.13.069-.257.145-.126.075-.248.157-.123.082-.241.17-.119.088-.232.18-.114.094-.223.193-.11.1-.214.203-.104.104-.203.214-.099.109-.192.223-.094.113-.181.232-.088.118-.17.24-.082.123-.157.25-.076.126-.146.256-.069.13-.132.263t-.12.269q-.056.136-.105.275-.05.138-.093.28-.042.14-.078.283-.036.143-.065.287-.028.145-.05.29-.022.146-.036.293-.015.146-.022.294Q0 15.853 0 16v383q0 .147.007.294.007.148.022.294.014.147.036.292.022.146.05.291.029.144.065.287.036.143.078.284.043.141.093.279.05.139.106.275.056.136.12.269.062.133.131.263.07.13.146.257.075.126.157.248.082.123.17.241.087.118.18.232.094.114.193.223.1.109.203.214.105.104.214.203.109.099.223.192t.232.181q.118.088.24.17.123.082.25.157.126.076.256.146.13.069.263.132t.269.119q.136.057.275.106.138.05.28.093.14.042.283.078.143.036.287.065.145.028.29.05.146.022.293.036.146.015.294.022.147.007.294.007h331q.147 0 .294-.007t.294-.022q.147-.014.292-.036.146-.022.291-.05.144-.029.287-.065.143-.036.284-.078.141-.043.279-.093.139-.049.275-.106.136-.056.269-.119t.263-.132q.13-.07.257-.146.126-.075.248-.157.123-.082.241-.17.118-.088.232-.181.114-.093.223-.192t.214-.203q.104-.105.203-.214.099-.109.192-.223t.181-.232q.088-.118.17-.241.082-.122.157-.248.076-.127.146-.257.069-.13.132-.263t.119-.269q.057-.136.106-.275.05-.138.093-.279.042-.141.078-.284t.065-.287q.028-.145.05-.291.022-.145.036-.292.015-.146.022-.294.007-.147.007-.294V16q0-.147-.007-.294t-.022-.294q-.014-.147-.036-.292-.022-.146-.05-.29-.029-.145-.065-.288-.036-.143-.078-.284-.043-.14-.093-.28-.049-.138-.106-.274-.056-.136-.119-.27-.063-.132-.132-.262-.07-.13-.146-.257-.075-.126-.157-.248-.082-.123-.17-.241-.088-.119-.181-.232-.093-.114-.192-.223-.099-.11-.203-.214-.105-.104-.214-.203-.109-.099-.223-.192-.114-.094-.232-.181-.118-.088-.241-.17-.122-.082-.248-.157-.127-.076-.257-.145-.13-.07-.263-.133t-.269-.12q-.136-.056-.275-.105-.138-.05-.279-.093-.141-.042-.284-.078t-.287-.065q-.145-.028-.291-.05-.145-.022-.292-.036-.147-.014-.294-.022Q337.147 10 337 10h-85.131Z" fill-rule="evenodd" fill="#FFF" style="mix-blend-mode:passthrough"/></svg>